<svg
    xmlns="http://www.w3.org/2000/svg"
    viewBox="0 0 300 499"
    preserveAspectRatio="xMidYMid meet"
>
    <g
    transform="translate(0,499) scale(0.1,-0.1)"
    fill="#000000"
    stroke="none"
    >
    <path d="M2229 4965 c-59 -16 -128 -63 -172 -118 -19 -23 -60 -98 -92 -167 -32 -69 -105 -226 -162 -350 -58 -124 -133 -286 -168 -360 -74 -160 -259 -558 -303 -650 -16 -36 -59 -128 -95 -205 -150 -323 -220 -472 -325 -690 -60 -126 -166 -351 -235 -500 -69 -148 -197 -423 -285 -610 -88 -187 -171 -365 -185 -395 -14 -30 -57 -124 -96 -209 -83 -180 -103 -242 -100 -314 7 -145 93 -268 226 -321 107 -44 214 -38 304 17 98 59 126 100 236 342 77 170 245 533 538 1165 34 74 81 173 103 220 22 47 81 175 132 285 51 110 126 272 167 360 41 88 114 246 163 350 48 105 123 264 165 355 42 91 90 192 105 225 15 33 63 134 105 225 42 91 105 226 140 300 34 74 84 180 110 235 178 378 198 434 184 527 -11 67 -35 112 -95 177 -97 105 -230 144 -365 106z" />

    <path d="M2525 3218 c-146 -31 -249 -138 -291 -305 -16 -63 -17 -80 -6 -133 19 -91 46 -145 102 -204 72 -76 149 -109 263 -114 73 -3 97 0 145 19 163 64 242 188 243 384 1 99 -46 195 -132 269 -78 67 -224 104 -324 84z" />

    <path d="M2173 2140 c-23 -5 -67 -25 -97 -44 -85 -54 -97 -74 -246 -396 -32 -69 -97 -208 -145 -310 -48 -102 -127 -270 -175 -375 -48 -104 -122 -264 -165 -355 -87 -187 -109 -258 -100 -327 8 -71 34 -142 62 -171 7 -7 18 -21 25 -31 27 -38 108 -88 168 -105 111 -31 228 -5 318 71 54 46 68 70 192 338 18 39 63 135 100 215 37 80 110 237 163 350 52 113 132 284 177 380 168 358 164 347 164 430 0 62 -5 85 -29 134 -74 156 -232 231 -412 196z" />
    </g>
</svg> 